<mxfile host="app.diagrams.net" agent="Mozilla/5.0 (Windows NT 10.0; Win64; x64) AppleWebKit/537.36 (KHTML, like Gecko) Chrome/128.0.0.0 Safari/537.36" version="24.7.14">
  <diagram name="Trang-1" id="1DMesU5spUel-o7tlGQU">
    <mxGraphModel dx="1877" dy="530" grid="1" gridSize="10" guides="1" tooltips="1" connect="1" arrows="1" fold="1" page="1" pageScale="1" pageWidth="827" pageHeight="1169" math="0" shadow="0">
      <root>
        <mxCell id="0" />
        <mxCell id="1" parent="0" />
        <mxCell id="oxGjsUCAKeBhMwnqYwcX-6" style="edgeStyle=orthogonalEdgeStyle;rounded=0;orthogonalLoop=1;jettySize=auto;html=1;entryX=0;entryY=0.5;entryDx=0;entryDy=0;" parent="1" source="oxGjsUCAKeBhMwnqYwcX-1" target="oxGjsUCAKeBhMwnqYwcX-5" edge="1">
          <mxGeometry relative="1" as="geometry" />
        </mxCell>
        <mxCell id="oxGjsUCAKeBhMwnqYwcX-1" value="khách hàng" style="shape=umlActor;verticalLabelPosition=bottom;verticalAlign=top;html=1;outlineConnect=0;" parent="1" vertex="1">
          <mxGeometry x="10" y="487.90999999999997" width="20" height="40" as="geometry" />
        </mxCell>
        <mxCell id="oxGjsUCAKeBhMwnqYwcX-8" style="edgeStyle=orthogonalEdgeStyle;rounded=0;orthogonalLoop=1;jettySize=auto;html=1;" parent="1" source="oxGjsUCAKeBhMwnqYwcX-3" target="oxGjsUCAKeBhMwnqYwcX-4" edge="1">
          <mxGeometry relative="1" as="geometry" />
        </mxCell>
        <mxCell id="oxGjsUCAKeBhMwnqYwcX-3" value="vào trang chủ" style="rounded=1;whiteSpace=wrap;html=1;fontSize=9;" parent="1" vertex="1">
          <mxGeometry x="150" y="495.40999999999997" width="60" height="25" as="geometry" />
        </mxCell>
        <mxCell id="oxGjsUCAKeBhMwnqYwcX-14" style="edgeStyle=orthogonalEdgeStyle;rounded=0;orthogonalLoop=1;jettySize=auto;html=1;entryX=0;entryY=0;entryDx=0;entryDy=0;" parent="1" source="oxGjsUCAKeBhMwnqYwcX-4" target="oxGjsUCAKeBhMwnqYwcX-10" edge="1">
          <mxGeometry relative="1" as="geometry" />
        </mxCell>
        <mxCell id="oxGjsUCAKeBhMwnqYwcX-4" value="chọn yêu cầu" style="rounded=1;whiteSpace=wrap;html=1;fontSize=9;" parent="1" vertex="1">
          <mxGeometry x="230" y="495.40999999999997" width="60" height="25" as="geometry" />
        </mxCell>
        <mxCell id="oxGjsUCAKeBhMwnqYwcX-7" style="edgeStyle=orthogonalEdgeStyle;rounded=0;orthogonalLoop=1;jettySize=auto;html=1;entryX=0;entryY=0.5;entryDx=0;entryDy=0;" parent="1" source="oxGjsUCAKeBhMwnqYwcX-5" target="oxGjsUCAKeBhMwnqYwcX-3" edge="1">
          <mxGeometry relative="1" as="geometry" />
        </mxCell>
        <mxCell id="oxGjsUCAKeBhMwnqYwcX-5" value="quét qr" style="rounded=0;whiteSpace=wrap;html=1;fontSize=9;" parent="1" vertex="1">
          <mxGeometry x="70" y="495.40999999999997" width="60" height="25" as="geometry" />
        </mxCell>
        <mxCell id="oxGjsUCAKeBhMwnqYwcX-35" style="edgeStyle=orthogonalEdgeStyle;rounded=0;orthogonalLoop=1;jettySize=auto;html=1;entryX=0;entryY=0.5;entryDx=0;entryDy=0;" parent="1" source="oxGjsUCAKeBhMwnqYwcX-10" target="oxGjsUCAKeBhMwnqYwcX-34" edge="1">
          <mxGeometry relative="1" as="geometry" />
        </mxCell>
        <mxCell id="oxGjsUCAKeBhMwnqYwcX-10" value="đặt món" style="rounded=0;whiteSpace=wrap;html=1;fontSize=9;" parent="1" vertex="1">
          <mxGeometry x="310" y="540.41" width="70" height="25" as="geometry" />
        </mxCell>
        <mxCell id="oxGjsUCAKeBhMwnqYwcX-28" value="" style="endArrow=none;html=1;rounded=0;" parent="1" edge="1">
          <mxGeometry width="50" height="50" relative="1" as="geometry">
            <mxPoint x="-60" y="310" as="sourcePoint" />
            <mxPoint x="950.6896551724138" y="310" as="targetPoint" />
          </mxGeometry>
        </mxCell>
        <mxCell id="oxGjsUCAKeBhMwnqYwcX-37" style="edgeStyle=orthogonalEdgeStyle;rounded=0;orthogonalLoop=1;jettySize=auto;html=1;entryX=0;entryY=0.5;entryDx=0;entryDy=0;fontSize=9;" parent="1" source="oxGjsUCAKeBhMwnqYwcX-34" target="oxGjsUCAKeBhMwnqYwcX-36" edge="1">
          <mxGeometry relative="1" as="geometry" />
        </mxCell>
        <mxCell id="oxGjsUCAKeBhMwnqYwcX-34" value="danh sách món ăn" style="rounded=1;whiteSpace=wrap;html=1;fontSize=9;" parent="1" vertex="1">
          <mxGeometry x="420" y="540" width="80" height="30" as="geometry" />
        </mxCell>
        <mxCell id="oxGjsUCAKeBhMwnqYwcX-41" style="edgeStyle=orthogonalEdgeStyle;rounded=0;orthogonalLoop=1;jettySize=auto;html=1;" parent="1" source="oxGjsUCAKeBhMwnqYwcX-36" target="oxGjsUCAKeBhMwnqYwcX-40" edge="1">
          <mxGeometry relative="1" as="geometry" />
        </mxCell>
        <mxCell id="oxGjsUCAKeBhMwnqYwcX-36" value="chọn món và số lượng" style="rounded=0;whiteSpace=wrap;html=1;fontSize=9;" parent="1" vertex="1">
          <mxGeometry x="530" y="540" width="80" height="30" as="geometry" />
        </mxCell>
        <mxCell id="oxGjsUCAKeBhMwnqYwcX-46" style="edgeStyle=orthogonalEdgeStyle;rounded=0;orthogonalLoop=1;jettySize=auto;html=1;" parent="1" source="oxGjsUCAKeBhMwnqYwcX-38" edge="1">
          <mxGeometry relative="1" as="geometry">
            <mxPoint x="630" y="560" as="targetPoint" />
          </mxGeometry>
        </mxCell>
        <mxCell id="oxGjsUCAKeBhMwnqYwcX-47" value="no" style="edgeLabel;html=1;align=center;verticalAlign=middle;resizable=0;points=[];" parent="oxGjsUCAKeBhMwnqYwcX-46" vertex="1" connectable="0">
          <mxGeometry x="0.0574" y="-2" relative="1" as="geometry">
            <mxPoint as="offset" />
          </mxGeometry>
        </mxCell>
        <mxCell id="oxGjsUCAKeBhMwnqYwcX-38" value="gửi yêu cầu đặt món" style="rhombus;whiteSpace=wrap;html=1;fontSize=9;" parent="1" vertex="1">
          <mxGeometry x="650" y="380" width="60" height="50" as="geometry" />
        </mxCell>
        <mxCell id="oxGjsUCAKeBhMwnqYwcX-42" style="edgeStyle=orthogonalEdgeStyle;rounded=0;orthogonalLoop=1;jettySize=auto;html=1;entryX=0.5;entryY=1;entryDx=0;entryDy=0;" parent="1" source="oxGjsUCAKeBhMwnqYwcX-40" target="oxGjsUCAKeBhMwnqYwcX-38" edge="1">
          <mxGeometry relative="1" as="geometry" />
        </mxCell>
        <mxCell id="oxGjsUCAKeBhMwnqYwcX-40" value="giỏ hàng" style="rounded=1;whiteSpace=wrap;html=1;" parent="1" vertex="1">
          <mxGeometry x="640" y="540" width="80" height="30" as="geometry" />
        </mxCell>
        <mxCell id="oxGjsUCAKeBhMwnqYwcX-44" style="edgeStyle=orthogonalEdgeStyle;rounded=0;orthogonalLoop=1;jettySize=auto;html=1;entryX=0.441;entryY=1;entryDx=0;entryDy=0;entryPerimeter=0;" parent="1" source="oxGjsUCAKeBhMwnqYwcX-38" target="oxGjsUCAKeBhMwnqYwcX-43" edge="1">
          <mxGeometry relative="1" as="geometry" />
        </mxCell>
        <mxCell id="oxGjsUCAKeBhMwnqYwcX-45" value="yes" style="edgeLabel;html=1;align=center;verticalAlign=middle;resizable=0;points=[];" parent="oxGjsUCAKeBhMwnqYwcX-44" vertex="1" connectable="0">
          <mxGeometry x="-0.4346" relative="1" as="geometry">
            <mxPoint as="offset" />
          </mxGeometry>
        </mxCell>
        <mxCell id="oxGjsUCAKeBhMwnqYwcX-55" value="xử lý yêu cầu đặt món" style="rhombus;whiteSpace=wrap;html=1;fontSize=9;" parent="1" vertex="1">
          <mxGeometry x="210" y="30" width="70" height="60" as="geometry" />
        </mxCell>
        <mxCell id="aAdZ_H9S-tIdE8kJ0Z5o-3" style="edgeStyle=orthogonalEdgeStyle;rounded=0;orthogonalLoop=1;jettySize=auto;html=1;" edge="1" parent="1" source="oxGjsUCAKeBhMwnqYwcX-59">
          <mxGeometry relative="1" as="geometry">
            <mxPoint x="90" y="330" as="targetPoint" />
          </mxGeometry>
        </mxCell>
        <mxCell id="oxGjsUCAKeBhMwnqYwcX-67" style="edgeStyle=orthogonalEdgeStyle;rounded=0;orthogonalLoop=1;jettySize=auto;html=1;" parent="1" source="oxGjsUCAKeBhMwnqYwcX-64" edge="1">
          <mxGeometry relative="1" as="geometry">
            <mxPoint x="20.000000000000227" y="480" as="targetPoint" />
          </mxGeometry>
        </mxCell>
        <mxCell id="oxGjsUCAKeBhMwnqYwcX-64" value="thông báo" style="rounded=1;whiteSpace=wrap;html=1;fontSize=9;" parent="1" vertex="1">
          <mxGeometry x="30" y="340" width="100" height="30" as="geometry" />
        </mxCell>
        <mxCell id="aAdZ_H9S-tIdE8kJ0Z5o-10" style="edgeStyle=orthogonalEdgeStyle;rounded=0;orthogonalLoop=1;jettySize=auto;html=1;entryX=0.5;entryY=0;entryDx=0;entryDy=0;" edge="1" parent="1" source="oxGjsUCAKeBhMwnqYwcX-74" target="oxGjsUCAKeBhMwnqYwcX-3">
          <mxGeometry relative="1" as="geometry" />
        </mxCell>
        <mxCell id="oxGjsUCAKeBhMwnqYwcX-74" value="đăng nhập bằng id của từng phòng" style="ellipse;whiteSpace=wrap;html=1;fontSize=9;" parent="1" vertex="1">
          <mxGeometry x="130" y="380" width="100" height="50" as="geometry" />
        </mxCell>
        <mxCell id="aAdZ_H9S-tIdE8kJ0Z5o-2" style="edgeStyle=orthogonalEdgeStyle;rounded=0;orthogonalLoop=1;jettySize=auto;html=1;" edge="1" parent="1" source="oxGjsUCAKeBhMwnqYwcX-43" target="oxGjsUCAKeBhMwnqYwcX-55">
          <mxGeometry relative="1" as="geometry" />
        </mxCell>
        <mxCell id="oxGjsUCAKeBhMwnqYwcX-43" value="danh sách yêu cầu đặt món" style="rounded=0;whiteSpace=wrap;html=1;fontSize=9;" parent="1" vertex="1">
          <mxGeometry x="460" y="25" width="90" height="30" as="geometry" />
        </mxCell>
        <mxCell id="oxGjsUCAKeBhMwnqYwcX-68" style="edgeStyle=orthogonalEdgeStyle;rounded=0;orthogonalLoop=1;jettySize=auto;html=1;entryX=0;entryY=0.5;entryDx=0;entryDy=0;" parent="1" source="oxGjsUCAKeBhMwnqYwcX-52" target="oxGjsUCAKeBhMwnqYwcX-55" edge="1">
          <mxGeometry relative="1" as="geometry" />
        </mxCell>
        <mxCell id="aAdZ_H9S-tIdE8kJ0Z5o-9" style="edgeStyle=orthogonalEdgeStyle;rounded=0;orthogonalLoop=1;jettySize=auto;html=1;entryX=1;entryY=0.5;entryDx=0;entryDy=0;" edge="1" parent="1" source="oxGjsUCAKeBhMwnqYwcX-52" target="aAdZ_H9S-tIdE8kJ0Z5o-8">
          <mxGeometry relative="1" as="geometry" />
        </mxCell>
        <mxCell id="oxGjsUCAKeBhMwnqYwcX-52" value="nhân viên" style="shape=umlActor;verticalLabelPosition=bottom;verticalAlign=top;html=1;outlineConnect=0;" parent="1" vertex="1">
          <mxGeometry x="20" y="40" width="20" height="40" as="geometry" />
        </mxCell>
        <mxCell id="aAdZ_H9S-tIdE8kJ0Z5o-4" style="edgeStyle=orthogonalEdgeStyle;rounded=0;orthogonalLoop=1;jettySize=auto;html=1;" edge="1" parent="1" source="oxGjsUCAKeBhMwnqYwcX-55" target="oxGjsUCAKeBhMwnqYwcX-59">
          <mxGeometry relative="1" as="geometry" />
        </mxCell>
        <mxCell id="aAdZ_H9S-tIdE8kJ0Z5o-5" value="no" style="edgeLabel;html=1;align=center;verticalAlign=middle;resizable=0;points=[];" vertex="1" connectable="0" parent="aAdZ_H9S-tIdE8kJ0Z5o-4">
          <mxGeometry x="0.008" y="-2" relative="1" as="geometry">
            <mxPoint as="offset" />
          </mxGeometry>
        </mxCell>
        <mxCell id="aAdZ_H9S-tIdE8kJ0Z5o-6" style="edgeStyle=orthogonalEdgeStyle;rounded=0;orthogonalLoop=1;jettySize=auto;html=1;entryX=0.5;entryY=0;entryDx=0;entryDy=0;" edge="1" parent="1" source="oxGjsUCAKeBhMwnqYwcX-55" target="oxGjsUCAKeBhMwnqYwcX-69">
          <mxGeometry relative="1" as="geometry" />
        </mxCell>
        <mxCell id="aAdZ_H9S-tIdE8kJ0Z5o-7" value="yes" style="edgeLabel;html=1;align=center;verticalAlign=middle;resizable=0;points=[];" vertex="1" connectable="0" parent="aAdZ_H9S-tIdE8kJ0Z5o-6">
          <mxGeometry x="0.02" y="-3" relative="1" as="geometry">
            <mxPoint as="offset" />
          </mxGeometry>
        </mxCell>
        <mxCell id="oxGjsUCAKeBhMwnqYwcX-59" value="báo lỗi" style="rounded=1;whiteSpace=wrap;html=1;fontSize=9;" parent="1" vertex="1">
          <mxGeometry x="120" y="140" width="90" height="30" as="geometry" />
        </mxCell>
        <mxCell id="oxGjsUCAKeBhMwnqYwcX-69" value="in bill và thanh toán" style="rounded=1;whiteSpace=wrap;html=1;" parent="1" vertex="1">
          <mxGeometry x="270" y="140" width="90" height="30" as="geometry" />
        </mxCell>
        <mxCell id="aAdZ_H9S-tIdE8kJ0Z5o-8" value="thống kê đơn hàng và quản lý" style="ellipse;whiteSpace=wrap;html=1;fontSize=9;" vertex="1" parent="1">
          <mxGeometry x="-190" y="30" width="90" height="60" as="geometry" />
        </mxCell>
        <mxCell id="aAdZ_H9S-tIdE8kJ0Z5o-12" value="" style="endArrow=classic;startArrow=classic;html=1;rounded=0;entryX=0.5;entryY=1;entryDx=0;entryDy=0;exitX=0.5;exitY=0;exitDx=0;exitDy=0;" edge="1" parent="1" source="oxGjsUCAKeBhMwnqYwcX-74" target="oxGjsUCAKeBhMwnqYwcX-69">
          <mxGeometry width="50" height="50" relative="1" as="geometry">
            <mxPoint x="200" y="300" as="sourcePoint" />
            <mxPoint x="250" y="250" as="targetPoint" />
          </mxGeometry>
        </mxCell>
      </root>
    </mxGraphModel>
  </diagram>
</mxfile>
